{
	"asset":{
		"generator":"Khronos glTF Blender I/O v4.5.51",
		"version":"2.0"
	},
	"scene":0,
	"scenes":[
		{
			"name":"Cove",
			"nodes":[
				2,
				3,
				6,
				10
			]
		}
	],
	"nodes":[
		{
			"mesh":0,
			"name":"Deck",
			"translation":[
				0,
				1,
				10
			]
		},
		{
			"mesh":1,
			"name":"WaterlineCurb",
			"translation":[
				0,
				2.049999952316284,
				6.175000190734863
			]
		},
		{
			"children":[
				0,
				1
			],
			"name":"Shelf"
		},
		{
			"mesh":2,
			"name":"Beach",
			"translation":[
				0,
				-0.20000000298023224,
				-2
			]
		},
		{
			"mesh":3,
			"name":"Ramp",
			"rotation":[
				0.15273813903331757,
				0,
				0,
				0.9882667064666748
			],
			"translation":[
				0,
				0.8593320250511169,
				3.060378074645996
			]
		},
		{
			"mesh":4,
			"name":"Strand",
			"translation":[
				0,
				0,
				-5
			]
		},
		{
			"children":[
				4,
				5
			],
			"name":"Path"
		},
		{
			"mesh":5,
			"name":"Back",
			"translation":[
				0,
				5,
				-12.5
			]
		},
		{
			"mesh":6,
			"name":"East",
			"translation":[
				9,
				3.5,
				-2
			]
		},
		{
			"mesh":7,
			"name":"West",
			"translation":[
				-9,
				3.5,
				-2
			]
		},
		{
			"children":[
				7,
				8,
				9
			],
			"name":"Headland"
		}
	],
	"materials":[
		{
			"doubleSided":true,
			"name":"Mat_shelf",
			"pbrMetallicRoughness":{
				"baseColorFactor":[
					0.5,
					0.41999998688697815,
					0.30000001192092896,
					1
				],
				"metallicFactor":0,
				"roughnessFactor":0.8999999761581421
			}
		},
		{
			"doubleSided":true,
			"name":"Mat_beach",
			"pbrMetallicRoughness":{
				"baseColorFactor":[
					0.6200000047683716,
					0.5199999809265137,
					0.36000001430511475,
					1
				],
				"metallicFactor":0,
				"roughnessFactor":0.8999999761581421
			}
		},
		{
			"doubleSided":true,
			"name":"Mat_path",
			"pbrMetallicRoughness":{
				"baseColorFactor":[
					0.10999999940395355,
					0.0949999988079071,
					0.07999999821186066,
					1
				],
				"metallicFactor":0,
				"roughnessFactor":0.8999999761581421
			}
		},
		{
			"doubleSided":true,
			"name":"Mat_headland",
			"pbrMetallicRoughness":{
				"baseColorFactor":[
					0.36000001430511475,
					0.3199999928474426,
					0.2800000011920929,
					1
				],
				"metallicFactor":0,
				"roughnessFactor":0.8999999761581421
			}
		}
	],
	"meshes":[
		{
			"name":"Deck",
			"primitives":[
				{
					"attributes":{
						"POSITION":0,
						"NORMAL":1
					},
					"indices":2,
					"material":0
				}
			]
		},
		{
			"name":"WaterlineCurb",
			"primitives":[
				{
					"attributes":{
						"POSITION":3,
						"NORMAL":4
					},
					"indices":2,
					"material":0
				}
			]
		},
		{
			"name":"Beach",
			"primitives":[
				{
					"attributes":{
						"POSITION":5,
						"NORMAL":6
					},
					"indices":2,
					"material":1
				}
			]
		},
		{
			"name":"Ramp",
			"primitives":[
				{
					"attributes":{
						"POSITION":7,
						"NORMAL":8
					},
					"indices":2,
					"material":2
				}
			]
		},
		{
			"name":"Strand",
			"primitives":[
				{
					"attributes":{
						"POSITION":9,
						"NORMAL":10
					},
					"indices":2,
					"material":2
				}
			]
		},
		{
			"name":"Back",
			"primitives":[
				{
					"attributes":{
						"POSITION":11,
						"NORMAL":12
					},
					"indices":2,
					"material":3
				}
			]
		},
		{
			"name":"East",
			"primitives":[
				{
					"attributes":{
						"POSITION":13,
						"NORMAL":14
					},
					"indices":2,
					"material":3
				}
			]
		},
		{
			"name":"West",
			"primitives":[
				{
					"attributes":{
						"POSITION":15,
						"NORMAL":16
					},
					"indices":2,
					"material":3
				}
			]
		}
	],
	"accessors":[
		{
			"bufferView":0,
			"componentType":5126,
			"count":24,
			"max":[
				8,
				1,
				4
			],
			"min":[
				-8,
				-1,
				-4
			],
			"type":"VEC3"
		},
		{
			"bufferView":1,
			"componentType":5126,
			"count":24,
			"type":"VEC3"
		},
		{
			"bufferView":2,
			"componentType":5123,
			"count":36,
			"type":"SCALAR"
		},
		{
			"bufferView":3,
			"componentType":5126,
			"count":24,
			"max":[
				8,
				0.05000000074505806,
				0.17499999701976776
			],
			"min":[
				-8,
				-0.05000000074505806,
				-0.17499999701976776
			],
			"type":"VEC3"
		},
		{
			"bufferView":4,
			"componentType":5126,
			"count":24,
			"type":"VEC3"
		},
		{
			"bufferView":5,
			"componentType":5126,
			"count":24,
			"max":[
				8,
				0.20000000298023224,
				8
			],
			"min":[
				-8,
				-0.20000000298023224,
				-8
			],
			"type":"VEC3"
		},
		{
			"bufferView":6,
			"componentType":5126,
			"count":24,
			"type":"VEC3"
		},
		{
			"bufferView":7,
			"componentType":5126,
			"count":24,
			"max":[
				1.5,
				0.20000000298023224,
				3.1468238830566406
			],
			"min":[
				-1.5,
				-0.20000000298023224,
				-3.1468238830566406
			],
			"type":"VEC3"
		},
		{
			"bufferView":8,
			"componentType":5126,
			"count":24,
			"type":"VEC3"
		},
		{
			"bufferView":9,
			"componentType":5126,
			"count":24,
			"max":[
				1.5,
				0.10000000149011612,
				5
			],
			"min":[
				-1.5,
				-0.10000000149011612,
				-5
			],
			"type":"VEC3"
		},
		{
			"bufferView":10,
			"componentType":5126,
			"count":24,
			"type":"VEC3"
		},
		{
			"bufferView":11,
			"componentType":5126,
			"count":24,
			"max":[
				9,
				5,
				1.5
			],
			"min":[
				-9,
				-5,
				-1.5
			],
			"type":"VEC3"
		},
		{
			"bufferView":12,
			"componentType":5126,
			"count":24,
			"type":"VEC3"
		},
		{
			"bufferView":13,
			"componentType":5126,
			"count":24,
			"max":[
				1,
				3.5,
				8
			],
			"min":[
				-1,
				-3.5,
				-8
			],
			"type":"VEC3"
		},
		{
			"bufferView":14,
			"componentType":5126,
			"count":24,
			"type":"VEC3"
		},
		{
			"bufferView":15,
			"componentType":5126,
			"count":24,
			"max":[
				1,
				3.5,
				8
			],
			"min":[
				-1,
				-3.5,
				-8
			],
			"type":"VEC3"
		},
		{
			"bufferView":16,
			"componentType":5126,
			"count":24,
			"type":"VEC3"
		}
	],
	"bufferViews":[
		{
			"buffer":0,
			"byteLength":288,
			"byteOffset":0,
			"target":34962
		},
		{
			"buffer":0,
			"byteLength":288,
			"byteOffset":288,
			"target":34962
		},
		{
			"buffer":0,
			"byteLength":72,
			"byteOffset":576,
			"target":34963
		},
		{
			"buffer":0,
			"byteLength":288,
			"byteOffset":648,
			"target":34962
		},
		{
			"buffer":0,
			"byteLength":288,
			"byteOffset":936,
			"target":34962
		},
		{
			"buffer":0,
			"byteLength":288,
			"byteOffset":1224,
			"target":34962
		},
		{
			"buffer":0,
			"byteLength":288,
			"byteOffset":1512,
			"target":34962
		},
		{
			"buffer":0,
			"byteLength":288,
			"byteOffset":1800,
			"target":34962
		},
		{
			"buffer":0,
			"byteLength":288,
			"byteOffset":2088,
			"target":34962
		},
		{
			"buffer":0,
			"byteLength":288,
			"byteOffset":2376,
			"target":34962
		},
		{
			"buffer":0,
			"byteLength":288,
			"byteOffset":2664,
			"target":34962
		},
		{
			"buffer":0,
			"byteLength":288,
			"byteOffset":2952,
			"target":34962
		},
		{
			"buffer":0,
			"byteLength":288,
			"byteOffset":3240,
			"target":34962
		},
		{
			"buffer":0,
			"byteLength":288,
			"byteOffset":3528,
			"target":34962
		},
		{
			"buffer":0,
			"byteLength":288,
			"byteOffset":3816,
			"target":34962
		},
		{
			"buffer":0,
			"byteLength":288,
			"byteOffset":4104,
			"target":34962
		},
		{
			"buffer":0,
			"byteLength":288,
			"byteOffset":4392,
			"target":34962
		}
	],
	"buffers":[
		{
			"byteLength":4680,
			"uri":"cove.bin"
		}
	]
}
