{
  "asset": {
    "version": "2.0",
    "generator": "low_tide Skipper qa fixture"
  },
  "scene": 0,
  "scenes": [
    {
      "name": "QaImport",
      "nodes": [
        0
      ]
    }
  ],
  "nodes": [
    {
      "mesh": 0,
      "name": "QaImport"
    }
  ],
  "meshes": [
    {
      "name": "QaImport",
      "primitives": [
        {
          "attributes": {
            "POSITION": 1
          },
          "indices": 0
        }
      ]
    }
  ],
  "accessors": [
    {
      "bufferView": 0,
      "componentType": 5123,
      "count": 3,
      "type": "SCALAR"
    },
    {
      "bufferView": 1,
      "componentType": 5126,
      "count": 3,
      "max": [
        1.0,
        1.0,
        0.0
      ],
      "min": [
        0.0,
        0.0,
        0.0
      ],
      "type": "VEC3"
    }
  ],
  "bufferViews": [
    {
      "buffer": 0,
      "byteLength": 6,
      "byteOffset": 0,
      "target": 34963
    },
    {
      "buffer": 0,
      "byteLength": 36,
      "byteOffset": 8,
      "target": 34962
    }
  ],
  "buffers": [
    {
      "byteLength": 44,
      "uri": "data:application/octet-stream;base64,"
    }
  ]
}
